<?xml version="1.0" encoding="utf-8"?>
<!-- Generator: Adobe Illustrator 24.0.1, SVG Export Plug-In . SVG Version: 6.00 Build 0)  -->
<svg version="1.1" id="Capa_1" xmlns="http://www.w3.org/2000/svg" xmlns:xlink="http://www.w3.org/1999/xlink" x="0px" y="0px"
	 viewBox="0 0 475.1 475.1" style="enable-background:new 0 0 475.1 475.1;" xml:space="preserve">
<g>
	<path d="M171.9,160.4c0-26.6-0.1-53.1,0-79.7c0.2-38.6,28.8-67.9,65.8-67.8c36.8,0.1,65.3,29,65.4,67c0.2,53.9,0.2,107.9-0.1,161.8
		c-0.2,37.8-29,66.7-65.8,66.6c-36.7-0.1-65.1-29.2-65.5-67c-0.1-13.7,0-27.4,0-41C171.9,187,171.9,173.7,171.9,160.4z"/>
	<path d="M220.8,462.2c0-22.9,0-66.5,0-88.7c-3.3-0.7-6.6-1.4-9.9-2c-54.2-9.3-96.2-48-103.2-98c-3-21.1-1.5-42.9-1.2-64.3
		c0.1-9.4,6.4-14.9,15.9-15.5c8.7-0.6,16.1,6.6,16.5,16.2c0.5,12.9,0.2,25.8,0.2,38.7c0,46.1,23.1,76.9,68.1,88.3
		c42.6,10.7,80.6,2.3,111-31.1c12-13.2,17.5-29.4,17.6-47.2c0.1-14.8-0.1-29.7,0.1-44.5c0.1-12.5,6.3-20.2,16.1-20.3
		c9.9-0.2,16.7,7.6,16.7,19.8c-0.1,19.9,1.5,40.1-1.4,59.6c-7.5,51-47.5,88.2-102.7,98.4c-3,0.6-6.1,1.1-9.9,1.7
		c0,21.9,0,66.1,0,89.1C254.8,462.2,220.8,462.2,220.8,462.2z"/>
</g>
</svg>
