<?xml version="1.0" encoding="utf-8"?>
<!-- Generator: Adobe Illustrator 24.0.1, SVG Export Plug-In . SVG Version: 6.00 Build 0)  -->
<svg version="1.1" id="Layer_1" xmlns="http://www.w3.org/2000/svg" xmlns:xlink="http://www.w3.org/1999/xlink" x="0px" y="0px"
	 viewBox="0 0 472.6 472.6" style="enable-background:new 0 0 472.6 472.6;" xml:space="preserve">
<style type="text/css">
	.st0{fill:#ED1C24;}
	.st1{fill:#3A3A3A;}
</style>
<g>
	<path class="st0" d="M372.7,42.1c-54.3,0-98.3,44-98.3,98.3s44,98.3,98.3,98.3s98.3-44,98.3-98.3S427,42.1,372.7,42.1z M372.7,75.4
		c11.6,0,22.6,3.1,32,8.5L315.8,172c-5.2-9.3-8.2-20.1-8.2-31.5C307.6,104.5,336.8,75.4,372.7,75.4z M372.7,205.4
		c-12.4,0-24-3.5-33.9-9.6l90.1-88.1c5.6,9.6,8.8,20.7,8.8,32.6C437.7,176.2,408.5,205.4,372.7,205.4z"/>
	<g>
		<g>
			<path class="st1" d="M157.2,172.4C70.9,172.4,1,223.2,1,285.8c0,35.6,22.6,67.4,58,88.2l-16,56.9l75.5-35.2
				c12.4,2.3,25.4,3.5,38.7,3.5c86.3,0,156.2-50.8,156.2-113.4S243.5,172.4,157.2,172.4z M80.8,306.4c-12.4,0-22.4-10-22.4-22.4
				s10-22.4,22.4-22.4s22.4,10,22.4,22.4C103.2,296.4,93.1,306.4,80.8,306.4z M157.2,306.4c-12.4,0-22.4-10-22.4-22.4
				s10-22.4,22.4-22.4s22.4,10,22.4,22.4C179.6,296.4,169.6,306.4,157.2,306.4z M233.6,306.4c-12.4,0-22.4-10-22.4-22.4
				s10-22.4,22.4-22.4s22.4,10,22.4,22.4S246,306.4,233.6,306.4z"/>
		</g>
	</g>
</g>
</svg>
