<svg height="423pt" viewBox="-14 0 423 423.34039" width="423pt" xmlns="http://www.w3.org/2000/svg"><path d="m347.011719 266.898438c35.550781 19.140624 51.273437 61.773437 36.660156 99.414062s-54.984375 58.496094-94.140625 48.628906c-39.152344-9.867187-64.820312-47.359375-59.851562-87.433594 4.964843-40.070312 39.011718-70.160156 79.390624-70.167968 13.242188-.003906 26.28125 3.28125 37.941407 9.558594zm0 0" fill="#6fe3ff"/><path d="m154.191406 266.25c0-13.328125-12.992187-24.128906-29.011718-24.128906-16.019532 0-29.007813 10.800781-29.007813 24.128906s12.988281 24.121094 29.007813 24.121094c16.019531 0 29.011718-10.800782 29.011718-24.121094zm121.980469-52.050781c0-13.328125-12.980469-24.128907-29-24.128907-16.023437 0-29.011719 10.800782-29.011719 24.128907 0 13.332031 12.988282 24.121093 29.011719 24.121093 16.019531 0 29-10.800781 29-24.121093zm0-84.847657v-47.710937l-121.980469 30.089844v47.710937zm90 56.648438c.046875 28.097656-6.519531 55.808594-19.160156 80.898438-28.441407-15.296876-63.292969-12.003907-88.363281 8.355468-25.070313 20.359375-35.445313 53.789063-26.308594 84.765625-74.503906 19.78125-153.332032-10.066406-196.046875-74.234375-42.71875-64.164062-39.84375-148.40625 7.148437-209.507812 46.992188-61.105469 127.671875-85.507813 200.652344-60.695313s122.066406 93.335938 122.078125 170.417969zm0 0" fill="#f8ec7d"/><g fill="#e48e66"><path d="m276.171875 81.640625v47.710937l-121.980469 30.089844v-47.710937zm0 0"/><path d="m247.171875 190.070312c16.019531 0 29 10.800782 29 24.128907 0 13.332031-12.980469 24.121093-29 24.121093-16.023437 0-29.011719-10.800781-29.011719-24.121093 0-13.320313 12.988282-24.128907 29.011719-24.128907zm0 0"/><path d="m125.179688 242.121094c16.019531 0 29.011718 10.800781 29.011718 24.128906s-12.992187 24.121094-29.011718 24.121094c-16.019532 0-29.007813-10.800782-29.007813-24.121094s12.988281-24.128906 29.007813-24.128906zm0 0"/></g><path d="m282.171875 214.199219v-132.558594c0-1.84375-.851563-3.585937-2.300781-4.722656-1.453125-1.136719-3.347656-1.542969-5.136719-1.101563l-121.980469 30.089844c-2.679687.660156-4.5625 3.0625-4.5625 5.824219v131.839843c-6.664062-4.90625-14.738281-7.519531-23.011718-7.453124-19.304688 0-35.007813 13.519531-35.007813 30.132812s15.699219 30.117188 35.007813 30.117188c19.308593 0 35.011718-13.511719 35.011718-30.117188v-102.109375l109.980469-27.128906v54.507812c-6.660156-4.90625-14.730469-7.519531-23-7.449219-19.308594 0-35.011719 13.515626-35.011719 30.128907s15.699219 30.121093 35.011719 30.121093c19.308594 0 35-13.511718 35-30.121093zm-156.992187 70.171875c-12.6875 0-23.007813-8.128906-23.007813-18.121094s10.320313-18.128906 23.007813-18.128906 23.011718 8.132812 23.011718 18.128906-10.324218 18.121094-23.011718 18.121094zm35.011718-132.589844v-35.351562l109.980469-27.128907v35.351563zm63.96875 62.417969c0-10 10.320313-18.128907 23.011719-18.128907 12.6875 0 23 8.132813 23 18.128907 0 9.996093-10.320313 18.121093-23 18.121093-12.683594 0-23.011719-8.128906-23.011719-18.121093zm0 0" fill="#63316d"/><path d="m354.832031 264.519531c11.503907-24.574219 17.421875-51.386719 17.339844-78.519531 0-102.558594-83.441406-186-186-186-102.5625 0-186 83.441406-186 186s83.4375 186 186 186c14.21875.003906 28.394531-1.617188 42.25-4.828125 5.722656 15.355469 15.675781 28.777344 28.707031 38.710937 14.921875 11.378907 33.179688 17.511719 51.941406 17.457032 38.328126.003906 72.035157-25.359375 82.648438-62.1875 10.609375-36.832032-4.429688-76.238282-36.886719-96.632813zm-342.660156-78.519531c0-95.945312 78.054687-174 174-174 95.941406 0 174 78.054688 174 174 .074219 25.15625-5.367187 50.023438-15.945313 72.851562-29.617187-13.246093-64.167968-8.703124-89.351562 11.75-25.1875 20.449219-36.726562 53.332032-29.847656 85.035157-12.75 2.902343-25.78125 4.367187-38.855469 4.363281-95.953125 0-174-78.054688-174-174zm296.898437 225.339844c-30.835937-.007813-58.4375-19.136719-69.269531-48.007813-10.832031-28.875-2.621093-61.4375 20.601563-81.722656 23.226562-20.289063 56.597656-24.046875 83.75-9.433594h.011718c29.847657 16.074219 44.957032 50.378907 36.667969 83.253907-8.289062 32.875-37.859375 55.910156-71.761719 55.910156zm0 0" fill="#63316d"/><path d="m342.539062 345.378906-27.46875 27.472656v-85.511718c0-3.3125-2.6875-6-6-6s-6 2.6875-6 6v85.515625l-27.476562-27.476563c-2.347656-2.3125-6.121094-2.296875-8.449219.035156-2.332031 2.328126-2.347656 6.101563-.035156 8.449219l37.710937 37.714844c.140626.140625.285157.273437.441407.398437.027343.023438.058593.042969.089843.066407.121094.101562.25.195312.378907.285156.035156.019531.070312.039063.101562.058594.132813.085937.265625.167969.40625.242187.023438.015625.046875.023438.070313.035156.152344.078126.300781.152344.457031.21875.019531.007813.039063.011719.054687.019532.164063.066406.328126.125.5.175781.019532 0 .035157.011719.054688.015625.167969.050781.339844.09375.515625.128906.042969.007813.089844.011719.136719.019532.148437.027343.292968.054687.445312.066406.398438.042968.800782.042968 1.199219 0 .144531-.011719.292969-.039063.433594-.0625.050781-.011719.101562-.015625.148437-.023438.167969-.035156.335938-.078125.5-.125.023438-.007812.046875-.011718.066406-.019531.167969-.050781.328126-.109375.492188-.175781.019531-.007813.039062-.011719.0625-.019532.148438-.066406.300781-.136718.441406-.210937.03125-.015625.0625-.027344.089844-.042969.132812-.070312.257812-.148437.382812-.230468.039063-.023438.082032-.046876.121094-.074219.117188-.078125.230469-.164063.339844-.25.042969-.035157.089844-.0625.132812-.097657.148438-.125.292969-.257812.429688-.394531l37.710938-37.71875c2.3125-2.347656 2.296874-6.121093-.035157-8.449219-2.328125-2.332031-6.101562-2.347656-8.449219-.035156zm0 0" fill="#63316d"/></svg>