<?xml version="1.0" encoding="utf-8"?>
<!-- Generator: Adobe Illustrator 24.0.1, SVG Export Plug-In . SVG Version: 6.00 Build 0)  -->
<svg version="1.1" id="Capa_1" xmlns="http://www.w3.org/2000/svg" xmlns:xlink="http://www.w3.org/1999/xlink" x="0px" y="0px"
	 viewBox="0 0 191.7 191.7" style="enable-background:new 0 0 191.7 191.7;" xml:space="preserve">
<g>
	<path d="M72.3,161.7c0.9-12.8,1.9-25.2,2.7-37.6c0.1-2.5,1.5-3.8,3-5.2c25.1-22.7,50.2-45.3,75.2-68.1c1.8-1.7,6.1-3.3,4.1-5.9
		c-1.9-2.5-5.4,0.3-7.8,1.8C123.8,62.8,98.1,79,72.4,95.2c-6.2,3.9-12.5,7.7-18.6,11.8c-2.7,1.9-5.1,2-8.2,1
		c-12.1-4-24.3-7.7-36.4-11.6c-3.7-1.2-9.1-1.7-9.3-6.6c-0.2-5,4.9-6.5,8.8-8.1c35.6-13.8,71.3-27.5,106.9-41.3
		c20-7.7,39.9-15.4,59.9-23.1c0.9-0.4,1.8-0.7,2.7-1.1c8.7-3,14.4,1.4,13.2,10.6c-0.9,6.8-2.5,13.5-4,20.2
		c-8.4,39.3-16.8,78.5-25.2,117.7c-0.4,1.7-0.8,3.5-1.4,5.2c-2.3,5.8-7.1,7.7-12.6,4.9c-3.4-1.8-6.6-4.3-9.7-6.6
		c-11.1-8.1-22.2-16.2-33-24.5c-2.9-2.3-4.4-1.8-6.7,0.6c-5.7,5.8-11.7,11.4-17.6,17.1c-1.1,1-2.1,2.1-3.3,2.9
		c-1.5,1-3.2,2.4-4.9,1.4C71.4,164.9,72.5,162.8,72.3,161.7z"/>
</g>
</svg>
