<?xml version="1.0" encoding="utf-8"?>
<!-- Generator: Adobe Illustrator 24.0.1, SVG Export Plug-In . SVG Version: 6.00 Build 0)  -->
<svg version="1.1" id="Layer_1" xmlns="http://www.w3.org/2000/svg" xmlns:xlink="http://www.w3.org/1999/xlink" x="0px" y="0px"
	 viewBox="0 0 472.6 472.6" style="enable-background:new 0 0 472.6 472.6;" xml:space="preserve">
<style type="text/css">
	.st0{fill:#3A3A3A;}
	.st1{fill:#ED1C24;}
</style>
<g>
	<circle class="st0" cx="207.9" cy="236.5" r="65.3"/>
	<path class="st0" d="M76.2,430.9c0,0-10.8-115,137.3-111.6c0,0,126.5-2,124.4,111.6H76.2z"/>
	<path class="st1" d="M371.3,42c-54.1,0-98,43.9-98,98s43.9,98,98,98s98-43.9,98-98S425.4,42,371.3,42z M371.3,75.2
		c11.6,0,22.5,3.1,31.9,8.4l-88.6,87.8c-5.2-9.3-8.1-20-8.1-31.4C306.4,104.3,335.5,75.2,371.3,75.2z M371.3,204.8
		c-12.4,0-24-3.5-33.8-9.5l89.9-87.8c5.6,9.6,8.8,20.7,8.8,32.5C436.1,175.8,407,204.8,371.3,204.8z"/>
</g>
</svg>
