<?xml version="1.0" encoding="iso-8859-1"?>
<!-- Generator: Adobe Illustrator 19.0.0, SVG Export Plug-In . SVG Version: 6.00 Build 0)  -->
<svg version="1.1" id="Capa_1" xmlns="http://www.w3.org/2000/svg" xmlns:xlink="http://www.w3.org/1999/xlink" x="0px" y="0px"
	 viewBox="0 0 512 512" style="enable-background:new 0 0 512 512;" xml:space="preserve">
<g>
	<path style="fill:#FFCBA8;" d="M401.676,203.034v35.31h-43.255C362.614,217.794,380.693,203.034,401.676,203.034z"/>
	<path style="fill:#FFCBA8;" d="M410.503,291.31v17.655h-52.966v-61.793c-0.018-2.966,0.274-5.923,0.883-8.828h52.877
		c14.168-0.018,25.671,11.449,25.688,25.618c0,0.026,0,0.044,0,0.071v0.794C436.986,279.455,425.122,291.31,410.503,291.31z"/>
</g>
<path style="fill:#CCE3EB;" d="M401.676,167.724c-24.373,0-44.138-19.765-44.138-44.138s19.765-44.138,44.138-44.138
	c24.373,0,44.138,19.765,44.138,44.138S426.049,167.724,401.676,167.724z"/>
<g>
	<path style="fill:#F5F5F5;" d="M260.434,97.103v17.655c-0.026,9.737-7.918,17.629-17.655,17.655h-8.828
		c-9.737-0.026-17.629-7.918-17.655-17.655V97.103H260.434z"/>
	<path style="fill:#F5F5F5;" d="M198.641,97.103v17.655c-0.026,9.737-7.918,17.629-17.655,17.655h-8.828
		c-9.737-0.026-17.629-7.918-17.655-17.655V97.103H198.641z"/>
</g>
<polygon style="fill:#A55F39;" points="280.385,61.352 286.917,97.103 260.434,97.103 216.296,97.103 198.641,97.103 
	154.503,97.103 128.021,97.103 134.553,61.352 136.848,61.793 278.09,61.793 "/>
<polygon style="fill:#6F3114;" points="269.262,0 280.385,61.352 278.09,61.793 136.848,61.793 134.553,61.352 145.676,0 189.814,0 
	207.469,17.655 225.124,0 "/>
<g>
	<path style="fill:#FFCBA8;" d="M128.021,97.103v35.31h-17.655c-9.719-0.071-17.585-7.936-17.655-17.655
		c0.026-9.737,7.918-17.629,17.655-17.655H128.021z"/>
	<path style="fill:#FFCBA8;" d="M304.572,97.103c9.719,0.071,17.585,7.936,17.655,17.655c-0.026,9.737-7.918,17.629-17.655,17.655
		h-17.655v-35.31H304.572z"/>
	<path style="fill:#FFCBA8;" d="M260.434,114.759V97.103h26.483v88.276c0.009,27.569-18.255,51.809-44.756,59.41
		c-5.535,1.607-11.273,2.41-17.037,2.383h-35.31c-5.764,0.026-11.502-0.777-17.037-2.383c-26.5-7.601-44.765-31.841-44.756-59.41
		V97.103h26.483v17.655c0.026,9.737,7.918,17.629,17.655,17.655h8.828c9.737-0.026,17.629-7.918,17.655-17.655V97.103h17.655v17.655
		c0.026,9.737,7.918,17.629,17.655,17.655h8.828C252.516,132.387,260.399,124.495,260.434,114.759z"/>
	<path style="fill:#FFCBA8;" d="M242.779,264.828v8.828l-35.31,35.31l-35.31-31.956v-29.837l0.618-2.383
		c5.535,1.607,11.273,2.41,17.037,2.383h35.31c5.764,0.026,11.502-0.777,17.037-2.383l0.618,2.383V264.828z"/>
</g>
<polygon style="fill:#6F3114;" points="216.296,370.759 242.779,512 172.158,512 198.641,370.759 172.158,344.276 207.469,308.966 
	242.779,344.276 "/>
<g>
	<polygon style="fill:#F5F5F5;" points="242.779,273.655 242.779,344.276 207.469,308.966 	"/>
	<polygon style="fill:#F5F5F5;" points="207.469,308.966 172.158,344.276 172.158,277.01 	"/>
	<polygon style="fill:#F5F5F5;" points="198.641,370.759 172.158,512 172.158,432.552 172.158,344.276 	"/>
</g>
<polygon style="fill:#A55F39;" points="242.779,432.552 242.779,512 216.296,370.759 242.779,344.276 "/>
<g>
	<path style="fill:#6F3114;" d="M128.021,273.655L92.71,220.69l44.138-0.353l1.412-0.883c8.104,12.306,20.348,21.301,34.516,25.335
		l-0.618,2.383v185.379l-61.793-88.276L128.021,273.655z"/>
	<path style="fill:#6F3114;" d="M287.358,275.509l17.214,68.767l-61.793,88.276V247.172l-0.618-2.383
		c14.168-4.034,26.412-13.03,34.516-25.335l1.412,0.883l44.138,0.353l-35.31,52.966L287.358,275.509z"/>
</g>
<g>
	<path style="fill:#A55F39;" d="M128.021,273.655l-17.655,70.621l-17.655,8.828V512H57.4V344.276
		C57.4,305.276,89.011,273.655,128.021,273.655z"/>
	<polygon style="fill:#A55F39;" points="172.158,432.552 172.158,512 92.71,512 92.71,353.103 110.365,344.276 	"/>
	<path style="fill:#A55F39;" d="M410.503,308.966v150.069c0,29.255-23.711,52.966-52.966,52.966V308.966H410.503z"/>
	<path style="fill:#A55F39;" d="M322.227,512h-79.448v-79.448l61.793-88.276l-17.214-68.767
		c40.889,8.589,70.162,44.641,70.179,86.422V512H322.227z"/>
</g>
<rect x="357.538" y="335.448" style="fill:#6F3114;" width="26.483" height="17.655"/>
<g>
	<rect x="83.883" y="353.103" style="fill:#874A29;" width="17.655" height="158.897"/>
	<rect x="313.4" y="353.103" style="fill:#874A29;" width="17.655" height="158.897"/>
</g>
<g>
	<path style="fill:#454545;" d="M180.986,141.241h-8.828c-14.627,0-26.483-11.855-26.483-26.483V97.103h17.655v17.655
		c0,4.873,3.955,8.828,8.828,8.828h8.828c4.873,0,8.828-3.955,8.828-8.828V97.103h17.655v17.655
		C207.469,129.386,195.605,141.241,180.986,141.241z"/>
	<path style="fill:#454545;" d="M242.779,141.241h-8.828c-14.627,0-26.483-11.855-26.483-26.483V97.103h17.655v17.655
		c0,4.873,3.955,8.828,8.828,8.828h8.828c4.873,0,8.828-3.955,8.828-8.828V97.103h17.655v17.655
		C269.262,129.386,257.398,141.241,242.779,141.241z"/>
</g>
<rect x="57.4" y="88.276" style="fill:#6F3114;" width="291.31" height="17.655"/>
<g>
	<rect x="392.848" y="158.897" style="fill:#454545;" width="17.655" height="97.103"/>
	<path style="fill:#454545;" d="M401.676,176.552c-29.237-0.026-52.939-23.729-52.966-52.966c0.018-8.783,2.198-17.426,6.338-25.176
		v-0.053c13.93-25.724,46.08-35.275,71.804-21.345c25.724,13.93,35.275,46.08,21.345,71.804
		C438.937,165.888,421.088,176.534,401.676,176.552z M370.594,106.814c-9.26,17.161-2.86,38.585,14.301,47.846
		s38.585,2.86,47.846-14.301c9.26-17.161,2.86-38.585-14.301-47.846c-5.155-2.781-10.911-4.237-16.764-4.237
		c-12.968,0.026-24.885,7.115-31.082,18.503V106.814z"/>
</g>
<path style="fill:#EBB691;" d="M207.469,222.499h-0.079c-12.27,0.026-24.038-4.873-32.662-13.594l12.518-12.447
	c5.323,5.385,12.579,8.404,20.145,8.386l0,0c7.618,0.026,14.927-3.001,20.303-8.404l12.482,12.482
	C231.515,217.626,219.739,222.517,207.469,222.499z"/>
<g>
</g>
<g>
</g>
<g>
</g>
<g>
</g>
<g>
</g>
<g>
</g>
<g>
</g>
<g>
</g>
<g>
</g>
<g>
</g>
<g>
</g>
<g>
</g>
<g>
</g>
<g>
</g>
<g>
</g>
</svg>
