<?xml version="1.0" encoding="utf-8"?>
<!-- Generator: Adobe Illustrator 24.0.1, SVG Export Plug-In . SVG Version: 6.00 Build 0)  -->
<svg version="1.1" id="Layer_1" xmlns="http://www.w3.org/2000/svg" xmlns:xlink="http://www.w3.org/1999/xlink" x="0px" y="0px"
	 viewBox="0 0 360 60" style="enable-background:new 0 0 360 60;" xml:space="preserve">
<style type="text/css">
	.st0{fill:#EF7813;}
	.st1{fill:#FFFFFF;}
</style>
<g>
	<path class="st0" d="M54.3,29H42.2c-1.7-3-4.7-4.6-8.9-4.6c-7.1,0-11.7,5-11.7,12.8c0,8.3,4.7,13.2,12.6,13.2c5.5,0,9.2-2.9,10.9-8
		H31.2v-8.1h23.9v10.2c-2.3,7.8-9.8,15.5-21.7,15.5c-13.5,0-23-9.4-23-22.9s9.4-23,22.9-23C44.1,14.2,51.9,19.7,54.3,29z"/>
	<path class="st0" d="M77.1,60.3C66.6,60.3,59,53.2,59,41.9c0-11.4,7.4-18.4,18.1-18.4c10.5,0,17.8,6.9,17.8,17.8
		c0,1-0.1,2.1-0.2,3.2H69.9c0.4,4.7,3.3,6.9,6.8,6.9c3.1,0,4.8-1.5,5.7-3.5h11.7C92.4,54.9,86,60.3,77.1,60.3z M70,38.4h13.7
		c0-3.9-3.1-6.2-6.7-6.2C73.4,32.2,70.6,34.4,70,38.4z"/>
	<path class="st0" d="M125.4,40.3c0-4.9-2.7-7.6-6.9-7.6s-6.9,2.7-6.9,7.6v19.4h-11V24h11v4.7c2.2-3,6-5.1,10.8-5.1
		c8.3,0,13.8,5.6,13.8,15.3v20.9h-10.9V40.3z"/>
	<path class="st0" d="M142.9,14.3c0-3.3,2.6-6,6.5-6c3.8,0,6.5,2.6,6.5,6c0,3.3-2.6,5.9-6.5,5.9C145.6,20.2,142.9,17.6,142.9,14.3z
		 M144,24h11v35.8h-11V24z"/>
	<path class="st0" d="M198.2,59.8h-11v-4.9c-2.2,3.1-6,5.3-10.8,5.3c-8.3,0-13.9-5.7-13.9-15.3V24h10.9v19.4c0,4.9,2.8,7.6,6.9,7.6
		c4.2,0,6.9-2.7,6.9-7.6V24h11V59.8z"/>
	<path class="st0" d="M220.7,60.3c-9.6,0-16-5.3-16.5-12.3h10.8c0.3,2.5,2.5,4.2,5.5,4.2c2.8,0,4.3-1.3,4.3-2.9
		c0-5.8-19.5-1.6-19.5-14.8c0-6.1,5.2-11.1,14.6-11.1c9.2,0,14.4,5.1,15.1,12.2h-10.1c-0.3-2.4-2.2-4-5.3-4c-2.6,0-4,1-4,2.8
		c0,5.7,19.4,1.7,19.6,15C235.2,55.6,229.7,60.3,220.7,60.3z"/>
	<path class="st1" d="M267.4,21.1h-17.3v13.1h15.4v6h-15.4v13.7h17.3v6h-24.6V15.1h24.6V21.1z"/>
	<path class="st1" d="M314.6,37.6c0,13.7-9.4,22.1-23.7,22.1h-14.6V15.2H291C305.3,15.2,314.6,23.8,314.6,37.6z M291,53.8
		c10.5,0,16.2-6,16.2-16.2c0-10.2-5.6-16.5-16.2-16.5h-7.3v32.7H291z"/>
	<path class="st1" d="M321.8,15.2h7.3v28.4c0,6.9,3.9,10.2,10.1,10.2c6.2,0,10.1-3.3,10.1-10.2V15.2h7.3v28.3
		c0,11.4-8.2,16.7-17.5,16.7c-9.4,0-17.3-5.4-17.3-16.7V15.2z"/>
	<g>
		<path class="st1" d="M2.1,15.2c0.1-0.1,0.2-0.1,0.2-0.2C8.2,10.6,14,6.2,19.9,1.7c0.1-0.1,0.3-0.2,0.5-0.2
			C27.7,1.3,35.1,1,42.4,0.7c0.1,0,0.1,0,0.2,0c-0.1,0.1-0.2,0.1-0.2,0.2c-5.9,4.4-11.7,8.9-17.6,13.3c-0.1,0.1-0.3,0.1-0.4,0.1
			c-7.4,0.3-14.8,0.6-22.1,0.9C2.3,15.2,2.2,15.2,2.1,15.2z"/>
		<path class="st1" d="M36.4,7c0.8,2.3,1.6,4.5,2.4,6.7c-0.7,0.3-1.4,0.7-2.1,1c-3.5,1.8-6.5,4.3-8.9,7.5c-0.1,0.2-0.2,0.2-0.4,0.2
			c-4.1-1-8.2-1-12.3,0c-0.3,0.1-0.6,0.1-0.8,0.2c-0.3,0.1-0.5,0.1-0.8,0.2c-0.8-2.2-1.6-4.4-2.4-6.7c0.1,0,0.2,0,0.3,0
			c4.5-0.2,9.1-0.4,13.6-0.5c0.1,0,0.3-0.1,0.4-0.2c3.6-2.7,7.2-5.5,10.8-8.2C36.2,7.1,36.3,7.1,36.4,7z"/>
		<path class="st1" d="M2.8,36.4c1.5,0.2,3,0.3,4.5,0.5c0-0.1,0-0.1,0-0.2c0.3-2.6,0.5-5.3,0.4-8c-0.1-1.1-0.2-2.3-0.5-3.4
			c0.1,0,0.1-0.1,0.2-0.1c0.9-0.7,1-2.1,0-2.7c-0.2-0.1-0.2-0.3-0.2-0.4c0.2-1.9,0.5-4.4,0.7-6.3c0-0.2,0-0.2-0.3-0.2
			c-0.3,0-0.2,0-0.9,0c0,0.1,0,0.2,0,0.3C6.5,18,6.2,20,6,22c0,0.1,0,0.2-0.2,0.3c-1.2,0.5-1.5,1.9-0.6,2.8c0,0,0,0,0,0
			c-0.3,0.6-0.6,1.3-0.8,1.9c-0.6,1.7-1,3.4-1.2,5.1c-0.2,1.3-0.3,2.7-0.5,4C2.8,36.2,2.8,36.3,2.8,36.4z"/>
	</g>
</g>
</svg>
