<?xml version="1.0" encoding="utf-8"?>
<!-- Generator: Adobe Illustrator 24.0.1, SVG Export Plug-In . SVG Version: 6.00 Build 0)  -->
<svg version="1.1" id="Layer_3" xmlns="http://www.w3.org/2000/svg" xmlns:xlink="http://www.w3.org/1999/xlink" x="0px" y="0px"
	 viewBox="0 0 512 512" style="enable-background:new 0 0 512 512;" xml:space="preserve">
<style type="text/css">
	.st0{fill:#EF7813;}
	.st1{fill:#C65906;}
</style>
<g>
	<path class="st0" d="M308.5,264.7c-1.7-17.3-3.3-33.7-5-51.2c15.5,4.7,30.4,8.7,45,13.9c9.7,3.4,19.1,8.1,28.3,12.8
		c12.1,6.1,16.1,17.4,18.1,30.3c-15,3.3-29.8,6.6-44.7,9.8c-27.3,5.9-54.7,11.6-81.9,17.7c-5.5,1.2-10.6,4-16.4,6.3
		c-11.9-8.2-27-8.6-41.2-11.9c-31.8-7.2-63.7-13.9-95.6-20.8c-1.5-0.3-3-0.9-4.5-1.4c1.7-13.7,7.2-24.6,19.8-31.4
		c17.5-9.4,36.3-15.1,55.3-20.5c5.2-1.5,10.3-2.8,16.1-4.4c-1.6,16.9-3.2,33.4-4.9,50.9c2.3-0.8,3.9-1.2,5.5-1.8
		c15.4-5.8,30.8-11.7,46.3-17.3c2.4-0.9,5.6-0.8,8,0c15.5,5.6,30.9,11.5,46.3,17.3C304.6,263.6,306.1,264,308.5,264.7z"/>
	<path class="st0" d="M53.8,433.5c-31.7,0.7-40.7-25-35.4-43.1c3.9-13.6,12.5-22.4,27-24.1c9.2-1.1,18.5-1.8,27.8-2.2
		c7.6-0.3,10.5,2.8,11.6,10.1c0.4,2.5,1.3,5.4,3,7.2c2.6,2.9,2.2,5.4,1.3,8.8c-0.8,3,0.2,6.4,0.1,9.5c-0.2,7.3-0.1,14.6-0.9,21.9
		c-0.2,1.8-3.2,4.2-5.4,4.7C71.4,429.4,59.8,432.1,53.8,433.5z"/>
	<path class="st0" d="M451.9,433.6c-6.3-1.5-17.8-4-29.2-7.1c-5.2-1.4-7-5.7-6.5-11.4c0.3-3.3-1-6.7-0.4-9.9
		c1.3-6.9,2.1-13.7-0.3-20.5c4.6-4.3,4.3-10.6,6.7-15.8c1.2-2.5,6.2-4.7,9.4-4.6c11.1,0.4,22.3,0.9,33.1,3
		c16.2,3.2,26.5,21.5,23.3,39.4C484.9,424.2,474,433.8,451.9,433.6z"/>
	<path class="st1" d="M440,283.2c-26.1,5.6-52.2,11.3-78.3,16.9c-29.4,6.4-58.8,12.8-88.3,19.1c-5.1,1.1-8.4,3.5-9.9,8.6
		c-0.4,1.4-2.1,3.1-3.5,3.3c-4,0.6-8.2,0.7-12.2,0.6c-3.4-0.1-5.8-1.4-6.7-5.5c-0.9-4.2-4.5-6.1-8.7-7c-41.5-8.9-83-17.9-124.6-26.9
		c-14.2-3.1-28.3-6.3-42.5-9.4c-8.3-1.8-13.8,1.8-13.5,9.8c0.7,16.5,2.1,32.9,3.3,49.3c6.2,0,12,0,17.8,0c11.4,0,22.4,3.1,27.8,13.3
		c6,11.5,13.4,23.1,10.6,37.7c-1.4,7.3-0.5,15.2,0.2,22.8c1.1,12.9-8.4,27-22.3,31.5c-6.6,2.1-13.5,3.7-20.2,5.4
		c-1.7,0.4-3.4,0.8-4.9,1.2c-0.2,0.7-0.5,1-0.4,1.4c1.9,18.1,2,18,20.1,21.2c46.8,8.2,93.6,16.4,140.4,24.7c1.7,0.3,3.4,1,4.9,1.9
		c5,3,9.8,6.1,14,8.7h19.2c4.3-2.7,9.3-6.4,14.9-8.9c4.8-2.1,10.3-2.8,15.6-3.7c46.1-8.1,92.2-16.1,138.3-24.1
		c6.9-1.2,9.8-4.5,10.3-11.6c0.2-2.9,0.5-5.7,0.8-9.3c-2.8-0.7-5.6-1.5-8.5-2.3c-5.4-1.4-10.7-3.1-16.1-4.3
		c-13-2.9-26.1-19.2-23.1-34.9c1.3-6.9,0-14.5-0.5-21.7c-0.5-7-0.1-13.6,3.8-19.7c0.9-1.3,1.5-2.8,1.9-4.4
		c3.8-15.7,16.1-25.2,32.4-25.1c5.9,0.1,11.8,0,18.3,0c0.5-6.5,1.1-13.4,1.6-20.3c0.6-9,1.1-17.9,1.8-26.9
		C454.3,285.7,449.2,281.2,440,283.2z M252.2,486.4c-6.1,0-9.3-3.6-9.3-10.5c0-37.7,0-75.4,0-113c0-1.8,0-3.5,0-5.4
		c6,0,11.4,0,17.4,0c0,4.3,0,8.6,0,12.8c0,35.2,0,70.3,0,105.5C260.4,483.3,257.9,486.5,252.2,486.4z"/>
	<path class="st0" d="M256,3.6c0.4,5,0.6,8.7,0.9,12c-9.5,1-19.5,1.2-29,3.3c-32.8,7.2-57.8,24.7-70.8,56.7
		c-7.8,19.2-6.2,38.6,0.7,57.8c0.6,1.7,1.3,3.3,1.8,4.9c-7.2,6.9-6,15.2-3.9,23.2c1.3,4.9,4.1,9.5,6.5,14.1
		c2.2,4.1,5.4,6.8,10.7,5.1c6.9,16.2,15,31.3,26.4,44.5c10.2,11.7,21.9,21.4,37.5,24.9c20.6,4.6,37.7-2.8,52.6-16.6
		c14-13,23.8-29.1,31.5-46.4c0.9-1.9,1.7-3.9,2.8-6.3c5.5,2,8.3-1.5,10.9-5.4c5.7-8.9,9.3-18.2,6.9-29c-0.5-2.4-1.6-4.6-2.6-7.3
		c16.3-29.2,8.2-70.9-18.9-96.4c-2.4-2.3-2.8-4.3-1.4-7.1c2.8-5.3,5.7-10.7,8.9-16.7c-10.2,0.4-18.1,5.7-27,9.5
		c-5.8-7.4-8.7-15.9-9.3-25.6h-3.5c-3.6,4.9-7.2,9.7-11.2,15.2C270.2,13.6,263.9,9.1,256,3.6z M290.7,77.9c1.2,3.2,2.3,5.7,3.2,8.3
		c5.6,15.8,11.9,31.1,24.9,42.7c1,0.9,1.6,2.9,1.4,4.2c-6.4,32.7-17.6,63.4-41.9,87.3c-20.8,20.3-43.7,18.6-63.2-3.3
		c-16.3-18.4-26-40.1-33-63.4c-2.2-7.3-3.8-14.8-5.8-22.7c29.6-1.4,46.8-20,62.1-41.5c0.5,0.2,0.9,0.4,1.4,0.6
		c-1.5,5.9-2.7,11.8-4.5,17.6c-1.9,5.9-4.3,11.7-6.8,18.3C255.1,117.4,276.1,102.6,290.7,77.9z"/>
</g>
</svg>
