<?xml version="1.0" encoding="utf-8"?>
<!-- Generator: Adobe Illustrator 24.0.1, SVG Export Plug-In . SVG Version: 6.00 Build 0)  -->
<svg version="1.1" id="Layer_3" xmlns="http://www.w3.org/2000/svg" xmlns:xlink="http://www.w3.org/1999/xlink" x="0px" y="0px"
	 viewBox="0 0 512 512" style="enable-background:new 0 0 512 512;" xml:space="preserve">
<style type="text/css">
	.st0{fill:#EF7813;}
	.st1{fill:#C65906;}
</style>
<g>
	<path class="st0" d="M207.3,35.3c18.1-1.2,34.2,3.9,49.3,12.6c10.6,6.1,18,14.9,21.8,26.7c1.8,5.4,4.7,10.5,6,16
		c3.2,13.4,1.7,26.8-1.9,40c-0.4,1.4,0.1,3,0.3,4.5c0.3,2.4,1.4,5,0.8,7.2c-2.3,8.7-3.8,17.9-7.9,25.6
		c-7.1,13.3-12.3,27.9-22.9,39.3c-0.7,0.8-0.5,2.5-0.8,3.7c-0.5,2.7-0.5,5.5-1.6,7.9c-7.4,16.8-18.4,30.5-34.9,39.4
		c-5.4,2.9-10,3-15.5,0.1c-17.7-9.5-29.1-24.4-36.4-42.7c-0.3-0.6-0.5-1.5-0.3-2.1c1-3.9-0.8-6.7-3.2-9.6
		c-6.6-8.2-11.6-17.3-15.5-27.1c-0.6-1.5-1.6-2.8-2.4-4.2c-1.2-2.1-2.9-4.1-3.6-6.4c-2.4-7.4-4.7-14.8-6.7-22.3
		c-0.9-3.2-0.7-6.7,1.2-9.8c0.5-0.8,0.1-2.3-0.2-3.4c-4.1-15-5.6-30-0.6-45c2.2-6.5,5-12.7,8-18.9c3.7-7.5,9.4-13.4,16.6-17.7
		C172.4,39.6,189.2,34.1,207.3,35.3z"/>
	<path class="st0" d="M324.3,405.5c0.3-25.2,20.7-45.3,45.9-44.9c2.5,0,3.5-0.9,4.5-3c35.2-72.8,70.5-145.5,105.8-218.3
		c3.7-7.6,10.3-11.2,18.2-9.9c7.3,1.2,13,7,13.4,14.7c0.2,3.5-0.9,7.3-2.4,10.5c-23.2,48.3-46.6,96.4-70,144.6
		c-11.8,24.4-23.6,48.8-35.5,73.1c-0.9,1.9-1,3.1,0.5,4.8c12.8,15.4,13.8,37.3,2.6,54c-11.1,16.6-32,23.9-51,18
		C336.9,443.1,324,425.5,324.3,405.5z"/>
	<path class="st1" d="M215.8,410.7c0-17.4,0-34.8,0-52.2c0-1.8,0.3-3.7,0.9-5.4c0.8-2.2,2.6-3.5,5.1-3.8c30-2.9,60.1-5.8,90.1-8.7
		c0.9-0.1,1.8-0.2,2.7-0.3c5.2-0.6,8.2,1.8,8.3,7.1c0.2,5.4,0.1,10.8,0,16.3c0,1.1-0.6,2.4-1.3,3.3c-18.7,24.1-18.7,54.3,0,78.2
		c0.7,1,1.2,2.3,1.3,3.6c0.2,2.2,0.1,4.5,0,6.7c-0.2,4.7-2.6,7-7.2,7.5c-29.1,2.8-58.2,5.6-87.4,8.4c-1.4,0.1-2.9,0.2-4.3,0.3
		c-5.5,0.5-8.2-1.8-8.4-7.3c-0.1-3.1,0-6.1,0-9.2C215.8,440.4,215.8,425.6,215.8,410.7z"/>
	<path class="st1" d="M199.4,410.5c0,17.5,0,35,0,52.5c0,1.7-0.1,3.5-0.7,5.1c-1.1,3.1-3.2,4.1-6.5,3.8c-31-3-62.1-6-93.1-9
		c-3.9-0.4-6.3-2.4-6.7-6.3c-0.3-2.9-0.2-5.9-0.1-8.9c0-0.9,0.7-1.9,1.3-2.6c18.6-23.6,18.6-54.5,0.1-77.9c-0.8-1-1.4-2.5-1.4-3.8
		c-0.2-5.1-0.1-10.2,0-15.3c0.1-5.9,2.9-8.2,8.7-7.6c20.1,2,40.3,3.9,60.5,5.9c10.8,1,21.6,2,32.4,3.1c3.2,0.3,4.7,2.6,5.4,5.5
		c0.3,1.2,0.2,2.4,0.2,3.7C199.4,375.9,199.4,393.2,199.4,410.5z"/>
	<path class="st0" d="M378.9,345.1c-13.8-2-26.8,0.3-38.9,6.8c-0.5-3.8-0.5-7.4-1.4-10.9c-2.9-11.6-12.7-18.1-24.5-16.9
		c-27.8,2.7-55.6,5.4-83.4,8.1c-0.8,0.1-1.6,0-2.7,0c-1-6.2-1.9-12.3-3-18.4c-0.9-5-3.2-10.1-2.9-15c0.4-4.7,3.4-9.2,5.3-13.7
		c0.7-1.8,1.2-3.7,2.1-6.4c3.6,4.5,7,8.5,10.2,12.7c3.1,4.2,5.9,8.5,9.6,12.8c4.4-25,8.8-50,13.2-74.6
		c17.4,16.5,40.4,22.9,62.6,30.8c13.2,4.7,24.1,12.1,31.3,24.6c10.4,18,18.1,37,22.4,57.4c0.1,0.6,0.2,1.2,0.3,1.8
		C379.1,344.3,379,344.5,378.9,345.1z"/>
	<path class="st0" d="M152.7,229.1c4.4,25.1,8.9,50.1,13.3,75.5c6.7-9,12.8-17.3,19.1-25.7c3,6.6,5.6,12.3,8.2,18.2
		c0.2,0.5,0.2,1.2,0.1,1.8c-2.2,11-4.4,22-6.6,33.5c-5.1-0.5-10.5-0.9-16-1.5c-22.4-2.2-44.8-4.4-67.2-6.5c-2.8-0.3-5.8-0.7-8.5-0.3
		c-10.9,1.6-18.9,11-19.4,22.5c-0.1,1.7,0,3.4,0,5.6c-12.6-6.7-25.5-9.1-39.6-7c0.2-1.2,0.2-2.3,0.5-3.3c4.4-20.3,12-39.2,22.5-57.1
		c7.2-12.4,18.2-19.5,31.2-24.4c13.5-5.1,27-10.1,40.2-15.7C138.9,241,146.7,236.1,152.7,229.1z"/>
	<path class="st0" d="M45.7,360.8c24.8-0.1,45.2,20.2,45.3,45c0.1,25.2-20.1,45.6-45.2,45.7c-25.1,0-45.6-20.3-45.5-45.4
		C0.3,381.1,20.7,360.8,45.7,360.8z"/>
</g>
</svg>
